<?xml version="1.0" encoding="utf-8"?>
<!-- Generator: Adobe Illustrator 23.0.2, SVG Export Plug-In . SVG Version: 6.00 Build 0)  -->
<svg version="1.1" id="Layer_1" xmlns="http://www.w3.org/2000/svg" xmlns:xlink="http://www.w3.org/1999/xlink" x="0px" y="0px"
	 viewBox="0 0 17.1 17.1" style="enable-background:new 0 0 17.1 17.1;" xml:space="preserve">
<style type="text/css">
	.st0{fill:#232732;}
</style>
<path class="st0" d="M14.6,10.8c-0.8-0.8-1.8-1.5-2.8-1.9c1.2-1,1.8-2.4,1.8-3.9c0-2.8-2.3-5-5-5s-5,2.3-5,5c0,1.5,0.7,2.9,1.8,3.9
	c-1.1,0.4-2,1.1-2.8,1.9c-1.6,1.6-2.5,3.8-2.5,6v0.2h1.8v-0.2c0-3.7,3-6.8,6.8-6.8s6.8,3,6.8,6.8v0.2h1.8v-0.2
	C17.1,14.6,16.2,12.4,14.6,10.8z M8.6,1.8c1.8,0,3.3,1.5,3.3,3.3c0,1.8-1.5,3.3-3.3,3.3S5.3,6.8,5.3,5C5.3,3.2,6.7,1.8,8.6,1.8z"/>
</svg>
