<?xml version="1.0" encoding="utf-8"?>
<!-- Generator: Adobe Illustrator 23.0.2, SVG Export Plug-In . SVG Version: 6.00 Build 0)  -->
<svg version="1.1" id="Layer_1" xmlns="http://www.w3.org/2000/svg" xmlns:xlink="http://www.w3.org/1999/xlink" x="0px" y="0px"
	 viewBox="0 0 36 21.6" style="enable-background:new 0 0 36 21.6;" xml:space="preserve">
<path d="M35,1l-4.4,9.2c-0.2,0.4-0.2,0.8,0,1.2l4.4,9.2H1V1H35 M35,0H1C0.4,0,0,0.4,0,1v19.6c0,0.6,0.4,1,1,1h34
	c0.3,0,0.7-0.2,0.8-0.5c0.2-0.3,0.2-0.7,0.1-1L31.5,11c-0.1-0.1-0.1-0.2,0-0.3l4.4-9.2c0.1-0.3,0.1-0.7-0.1-1C35.7,0.2,35.3,0,35,0
	L35,0z M35,2L35,2L35,2L35,2z"/>
</svg>
