<?xml version="1.0" encoding="utf-8"?>
<!-- Generator: Adobe Illustrator 23.0.2, SVG Export Plug-In . SVG Version: 6.00 Build 0)  -->
<svg version="1.1" id="Layer_1" xmlns="http://www.w3.org/2000/svg" xmlns:xlink="http://www.w3.org/1999/xlink" x="0px" y="0px"
	 viewBox="0 0 19.1 17.3" style="enable-background:new 0 0 19.1 17.3;" xml:space="preserve">
<style type="text/css">
	.st0{fill:#0A0A0C;}
</style>
<path class="st0" d="M0,0.7C0,0.3,0.3,0,0.7,0h2.5c0.3,0,0.6,0.2,0.7,0.5l2.9,10.4h7.8l2.6-6H8.6c-0.4,0-0.7-0.3-0.7-0.7
	c0-0.4,0.3-0.7,0.7-0.7h9.8c0.2,0,0.5,0.1,0.6,0.3C19.1,4,19.1,4.3,19,4.5l-3.2,7.4c-0.1,0.3-0.4,0.4-0.6,0.4H6.3
	c-0.3,0-0.6-0.2-0.7-0.5L2.7,1.4h-2C0.3,1.4,0,1.1,0,0.7z M5.6,17.3c0.9,0,1.6-0.7,1.6-1.6c0-0.9-0.7-1.6-1.6-1.6S4,14.8,4,15.7
	C4,16.6,4.7,17.3,5.6,17.3z M15.6,17.3c0,0,0.1,0,0.1,0c0.4,0,0.8-0.2,1.1-0.6c0.3-0.3,0.4-0.7,0.4-1.2c-0.1-0.9-0.8-1.5-1.7-1.5
	S14,14.9,14,15.8C14.1,16.6,14.8,17.3,15.6,17.3z"/>
</svg>
