<?xml version="1.0" encoding="utf-8"?>
<!-- Generator: Adobe Illustrator 23.0.2, SVG Export Plug-In . SVG Version: 6.00 Build 0)  -->
<svg version="1.1" id="Layer_1" xmlns="http://www.w3.org/2000/svg" xmlns:xlink="http://www.w3.org/1999/xlink" x="0px" y="0px"
	 viewBox="0 0 54 43.3" style="enable-background:new 0 0 54 43.3;" xml:space="preserve">
<style type="text/css">
	.st0{fill:#DE232A;}
</style>
<path class="st0" d="M41.6,8.2c-0.4-0.4-0.4-1.1,0-1.5c0.4-0.4,1.1-0.4,1.5,0c0.4,0.4,0.4,1.1,0,1.5C42.7,8.6,42,8.6,41.6,8.2z
	 M13.8,10.4c0.4-0.4,0.4-1.1,0-1.5c-0.4-0.4-1.1-0.4-1.5,0c-0.4,0.4-0.4,1.1,0,1.5C12.7,10.8,13.4,10.8,13.8,10.4z M7.6,16.5
	l3.2-3.2c0.4-0.4,0.4-1.1,0-1.5c-0.4-0.4-1.1-0.4-1.5,0L6.1,15c-0.4,0.4-0.4,1.1,0,1.5C6.5,16.9,7.1,16.9,7.6,16.5z M46.6,13.4
	c0.4,0.4,1.1,0.4,1.5,0c0.4-0.4,0.4-1.1,0-1.5l-2.1-2.1c-0.4-0.4-1.1-0.4-1.5,0c-0.4,0.4-0.4,1.1,0,1.5L46.6,13.4z M53.7,13.7
	C40,27.4,49.3,18.1,41.9,25.5l0.4,0.4c1.4,1.4,1.4,3.8,0,5.2c-0.7,0.7-1.7,1.1-2.6,1.1c0,1-0.4,2-1.1,2.7c-0.7,0.7-1.6,1.1-2.6,1.1
	c0,1-0.3,1.9-1.1,2.6c-0.7,0.7-1.6,1.1-2.6,1.1c0,1-0.4,2-1.1,2.6c-1.4,1.4-3.8,1.4-5.2,0l-0.4-0.4l-0.4,0.4c-1.4,1.4-3.8,1.4-5.2,0
	c-0.7-0.7-1.1-1.6-1.1-2.7c-1,0-2-0.4-2.6-1.1c-0.7-0.7-1.1-1.6-1.1-2.7c-1,0-1.9-0.4-2.6-1.1c-0.7-0.7-1.1-1.6-1.1-2.7
	c-1,0-2-0.4-2.6-1.1c-1.4-1.4-1.4-3.8,0-5.2l0.4-0.4c0,0-8.8-8.8-8.8-8.8c0,0,0,0,0,0c-0.4-0.4-0.4-1.1,0-1.5L13.8,1.7
	c0.4-0.4,1.1-0.4,1.5,0L20.6,7c2.1,0.2,3.6,0.9,4.9,2.1c1.6-1.5,3.6-2.3,6.1-2.3c1.2,0,2.3-0.5,3.3-1.5c0,0,0,0,0,0
	c0.1-0.1,4.4-4.2,5.3-5c0.4-0.4,1.1-0.4,1.5,0l11.9,11.9C54.1,12.7,54.1,13.3,53.7,13.7z M6.6,20l12-12l-4.1-4.1l-12,12L6.6,20z
	 M12.5,29.6l3.7-3.7c0.6-0.6,0.6-1.6,0-2.2c-0.6-0.6-1.6-0.6-2.2,0l-3.7,3.7c-0.6,0.6-0.6,1.6,0,2.2C10.9,30.2,11.9,30.2,12.5,29.6z
	 M16.2,33.3l3.7-3.7c0,0,0,0,0,0c0.6-0.6,0.6-1.6,0-2.2c-0.6-0.6-1.6-0.6-2.2,0L14,31.1c-0.6,0.6-0.6,1.6,0,2.2
	C14.6,33.9,15.6,33.9,16.2,33.3z M19.9,37l3.7-3.7c0,0,0,0,0,0c0.6-0.6,0.6-1.6,0-2.2c-0.6-0.6-1.6-0.6-2.2,0l-3.7,3.7
	c-0.6,0.6-0.6,1.6,0,2.2C18.3,37.7,19.3,37.7,19.9,37z M23.7,40.8l3.7-3.7c0.6-0.6,0.6-1.6,0-2.2c-0.6-0.6-1.6-0.6-2.2,0l-3.7,3.7
	c-0.6,0.6-0.6,1.6,0,2.2C22,41.4,23,41.4,23.7,40.8z M29.6,38.5L29.6,38.5C29.6,38.5,29.6,38.5,29.6,38.5l-0.4-0.4
	c-0.1,0.1-0.2,0.3-0.3,0.4L27,40.4l0.4,0.4c0.6,0.6,1.6,0.6,2.2,0C30.2,40.1,30.2,39.1,29.6,38.5z M40.8,27.3
	c-1.4-1.4-8.9-8.9-10.8-10.8l-3,3c-1.6,1.6-4.3,1.6-6,0c-1.6-1.6-1.6-4.3,0-6l3-3c-0.9-0.9-2-1.3-3.5-1.5L8.1,21.5l2.5,2.5l1.9-1.9
	c1.4-1.4,3.8-1.4,5.2,0c0.7,0.7,1.1,1.6,1.1,2.6c2.1,0,3.7,1.7,3.7,3.7c1,0,1.9,0.3,2.6,1.1c0.7,0.7,1.1,1.6,1.1,2.6
	c1,0,1.9,0.4,2.6,1.1c0.7,0.7,1.1,1.6,1.1,2.6c1,0.8,1.3,1.6,2.3,1.6c0.4,0,0.8-0.2,1.1-0.5c0.6-0.6,0.6-1.6,0-2.2L28.5,30
	c-0.4-0.4-0.4-1.1,0-1.5c0.4-0.4,1.1-0.4,1.5,0l4.8,4.8c0.6,0.6,1.6,0.6,2.2,0s0.6-1.6,0-2.2l-4.8-4.8c-0.4-0.4-0.4-1.1,0-1.5
	c0.4-0.4,1.1-0.4,1.5,0l4.8,4.8c0.6,0.6,1.6,0.6,2.2,0C41.4,29,41.4,28,40.8,27.3z M46.1,18.3L35.6,7.5c-1.2,0.9-2.5,1.4-4,1.4
	c-2.1,0-3.6,0.6-4.8,1.8c-1.1,1.1-3.2,3.2-4.3,4.3c-0.8,0.8-0.8,2.2,0,3c0.8,0.8,2.2,0.8,3,0l5.2-5.2c0.4-0.4,1.1-0.4,1.5,0
	c0.4,0.4,0.4,1.1,0,1.5L31.5,15l9,9C40.6,23.8,39.3,25.2,46.1,18.3z M51.5,13L41,2.5l-3.8,3.6l10.4,10.7L51.5,13z"/>
</svg>
