<?xml version="1.0" encoding="utf-8"?>
<!-- Generator: Adobe Illustrator 23.0.2, SVG Export Plug-In . SVG Version: 6.00 Build 0)  -->
<svg version="1.1" id="Layer_1" xmlns="http://www.w3.org/2000/svg" xmlns:xlink="http://www.w3.org/1999/xlink" x="0px" y="0px"
	 viewBox="0 0 21 20.8" style="enable-background:new 0 0 21 20.8;" xml:space="preserve">
<style type="text/css">
	.st0{fill:#808080;}
</style>
<path class="st0" d="M20.8,18.7c-0.7-0.7-2.5-2.5-2.5-2.5l-2-2c1-1.5,1.7-3.2,1.7-5.2c0-4.9-4-9-9-9C4,0,0,4,0,9c0,4.9,4,9,9,9
	c2.1,0,4-0.7,5.5-1.9l3.5,3.5c0,0,0.1,0.1,0.1,0.1c0,0-0.3-0.3,0.9,0.9C19.8,21.4,21.6,19.9,20.8,18.7z M9,15.8
	c-3.8,0-6.8-3.1-6.8-6.8c0-3.8,3.1-6.8,6.8-6.8c3.8,0,6.8,3.1,6.8,6.8c0,1.6-0.5,3-1.4,4.2c-0.3,0.4-0.6,0.7-1,1
	C12.2,15.2,10.6,15.8,9,15.8z"/>
</svg>
