<?xml version="1.0" encoding="utf-8"?>
<!-- Generator: Adobe Illustrator 23.0.2, SVG Export Plug-In . SVG Version: 6.00 Build 0)  -->
<svg version="1.1" id="Layer_1" xmlns="http://www.w3.org/2000/svg" xmlns:xlink="http://www.w3.org/1999/xlink" x="0px" y="0px"
	 viewBox="0 0 49 48.1" style="enable-background:new 0 0 49 48.1;" xml:space="preserve">
<style type="text/css">
	.st0{fill:#DE232A;}
</style>
<path class="st0" d="M24.5,8.9c2.5,0,4.5-2,4.5-4.5S27,0,24.5,0S20,2,20,4.5S22,8.9,24.5,8.9z M24.5,2.2c1.2,0,2.2,1,2.2,2.2
	s-1,2.2-2.2,2.2s-2.2-1-2.2-2.2S23.3,2.2,24.5,2.2z M26.1,9.6C26.1,9.6,26.1,9.6,26.1,9.6l-3.2,0c-3.4-0.1-6.1,2.5-6.2,5.9
	c0,0,0,0,0,0.1v0.9c0,0.6,0.6,0.9,1.2,0.9h13.1c0.6,0,1.2-0.3,1.2-0.9v-0.9C32.2,12.2,29.5,9.6,26.1,9.6z M19,15.2
	c0.1-1.7,1.8-3.3,3.9-3.3h3.1c2.1,0,3.8,1.7,3.9,3.3H19z M6.4,28.3c-0.6,0-1.1-0.5-1.1-1.1c0-5.8,2.6-11.3,7.2-15
	c0.4-0.3,1-0.2,1.4,0.2c0.4,0.4,0.4,1.1,0,1.6c-4,3.2-6.4,8.1-6.3,13.3C7.5,27.8,7,28.3,6.4,28.3L6.4,28.3z M29.9,43.3
	c0.6-0.2,1.2,0.1,1.4,0.7c0.2,0.6-0.1,1.2-0.7,1.4c-4,1.3-8.2,1.3-12.2,0c0,0,0,0-0.1,0c-0.5-0.2-0.8-0.8-0.6-1.4
	c0.2-0.6,0.8-0.9,1.4-0.7C22.6,44.4,26.4,44.4,29.9,43.3C29.9,43.3,29.9,43.3,29.9,43.3L29.9,43.3z M34.3,13.3
	c-0.5-0.4-0.6-1.1-0.3-1.6c0.4-0.5,1.1-0.6,1.6-0.3c5.1,3.6,8.1,9.5,8.1,15.7c0,0.6-0.5,1.1-1.1,1.1s-1.1-0.5-1.1-1.1
	C41.5,21.7,38.8,16.5,34.3,13.3L34.3,13.3z M7.8,39.5c2.5,0,4.5-2,4.5-4.5s-2-4.5-4.5-4.5s-4.5,2-4.5,4.5
	C3.3,37.5,5.3,39.5,7.8,39.5z M7.8,32.9c1.2,0,2.2,1,2.2,2.2c0,1.2-1,2.2-2.2,2.2s-2.2-1-2.2-2.2C5.6,33.8,6.6,32.9,7.8,32.9z
	 M9.4,40.3C9.4,40.3,9.4,40.3,9.4,40.3l-3.2,0c-3.4-0.1-6.1,2.5-6.2,5.9c0,0,0,0,0,0.1v0.9c0,0.6,0.6,0.9,1.2,0.9h13.1
	c0.6,0,1.2-0.3,1.2-0.9v-0.9C15.5,42.9,12.8,40.2,9.4,40.3z M2.3,45.8c0.1-1.7,1.8-3.3,3.9-3.3h3.1c2.1,0,3.8,1.7,3.9,3.3L2.3,45.8z
	 M36.8,35.1c0,2.5,2,4.5,4.5,4.5s4.5-2,4.5-4.5s-2-4.5-4.5-4.5S36.8,32.6,36.8,35.1z M43.4,35.1c0,1.2-1,2.2-2.2,2.2s-2.2-1-2.2-2.2
	c0-1.2,1-2.2,2.2-2.2S43.4,33.8,43.4,35.1z M42.8,40.3C42.8,40.3,42.8,40.3,42.8,40.3l-3.2,0c-3.4-0.1-6.1,2.5-6.2,5.9
	c0,0,0,0,0,0.1v0.9c0,0.6,0.6,0.9,1.2,0.9h13.1c0.6,0,1.2-0.3,1.2-0.9v-0.9C48.9,42.9,46.2,40.2,42.8,40.3L42.8,40.3z M35.7,45.8
	c0.1-1.7,1.8-3.3,3.9-3.3h3.1c2.1,0,3.8,1.7,3.9,3.3L35.7,45.8z"/>
</svg>
