<?xml version="1.0" encoding="utf-8"?>
<!-- Generator: Adobe Illustrator 23.0.2, SVG Export Plug-In . SVG Version: 6.00 Build 0)  -->
<svg version="1.1" id="Layer_1" xmlns="http://www.w3.org/2000/svg" xmlns:xlink="http://www.w3.org/1999/xlink" x="0px" y="0px"
	 viewBox="0 0 14.7 14.7" style="enable-background:new 0 0 14.7 14.7;" xml:space="preserve">
<style type="text/css">
	.st0{fill:#686868;}
</style>
<path class="st0" d="M10.5,14.7H4.2c-2.3,0-4.2-1.9-4.2-4.2V4.2C0,1.9,1.9,0,4.2,0h6.3c2.3,0,4.2,1.9,4.2,4.2v6.3
	C14.7,12.9,12.9,14.7,10.5,14.7z M4.2,1.3c-1.6,0-2.9,1.3-2.9,2.9v6.3c0,1.6,1.3,2.9,2.9,2.9h6.3c1.6,0,2.9-1.3,2.9-2.9V4.2
	c0-1.6-1.3-2.9-2.9-2.9H4.2z M7.4,11.1c-2.1,0-3.8-1.7-3.8-3.8c0-2.1,1.7-3.8,3.8-3.8c2.1,0,3.8,1.7,3.8,3.8
	C11.1,9.4,9.4,11.1,7.4,11.1z M7.4,4.9C6,4.9,4.9,6,4.9,7.4c0,1.4,1.1,2.5,2.5,2.5c1.4,0,2.5-1.1,2.5-2.5C9.9,6,8.8,4.9,7.4,4.9z
	 M11.3,2.5c-0.5,0-0.9,0.4-0.9,0.9s0.4,0.9,0.9,0.9c0.5,0,0.9-0.4,0.9-0.9S11.8,2.5,11.3,2.5z"/>
</svg>
