<?xml version="1.0" encoding="utf-8"?>
<!-- Generator: Adobe Illustrator 23.0.2, SVG Export Plug-In . SVG Version: 6.00 Build 0)  -->
<svg version="1.1" id="Layer_1" xmlns="http://www.w3.org/2000/svg" xmlns:xlink="http://www.w3.org/1999/xlink" x="0px" y="0px"
	 viewBox="0 0 8.6 13" style="enable-background:new 0 0 8.6 13;" xml:space="preserve">
<style type="text/css">
	.st0{fill:#DC252A;}
</style>
<g>
	<path class="st0" d="M4.3,0C1.9,0,0,1.9,0,4.3c0,1,0.6,2.5,1.9,4.8c0.9,1.6,1.8,2.9,1.8,3l0.6,1l0.6-1c0-0.1,0.9-1.4,1.8-3
		C8,6.8,8.6,5.3,8.6,4.3C8.6,1.9,6.7,0,4.3,0z M4.3,6.5c-1.2,0-2.2-1-2.2-2.2S3.1,2,4.3,2s2.2,1,2.2,2.2S5.5,6.5,4.3,6.5z"/>
</g>
</svg>
