<?xml version="1.0" encoding="utf-8"?>
<!-- Generator: Adobe Illustrator 23.0.2, SVG Export Plug-In . SVG Version: 6.00 Build 0)  -->
<svg version="1.1" id="Layer_1" xmlns="http://www.w3.org/2000/svg" xmlns:xlink="http://www.w3.org/1999/xlink" x="0px" y="0px"
	 viewBox="0 0 38.6 44" style="enable-background:new 0 0 38.6 44;" xml:space="preserve">
<style type="text/css">
	.st0{fill:#DE232A;}
</style>
<path class="st0" d="M19.3,44c-0.3,0-0.6-0.1-0.8-0.4L0.3,22.7c-0.3-0.4-0.4-0.8-0.2-1.2l5.2-10.4c0.2-0.4,0.5-0.6,1-0.6h26
	c0.4,0,0.7,0.2,1,0.6l5.2,10.4c0.2,0.4,0.1,0.9-0.2,1.2L20.1,43.6C19.9,43.8,19.6,44,19.3,44z M21.4,38.2l0.3,0.2l13.4-15.4h-7.3
	L21.4,38.2z M16.9,38.4l0.3-0.2l-6.5-15.1H3.5L16.9,38.4z M19.3,37.5l6.1-14.4H13.2L19.3,37.5z M28.9,20.9h6.8L32.3,14L28.9,20.9z
	 M13.7,20.9h11.2l-5.6-7.5L13.7,20.9z M2.9,20.9h6.8L6.3,14L2.9,20.9z M11.7,19.9l5.4-7.2h-9L11.7,19.9z M26.9,19.9l3.6-7.2h-9
	L26.9,19.9z M20.4,3.8V1.1c0-0.6-0.5-1.1-1.1-1.1s-1.1,0.5-1.1,1.1v2.7c0,0.6,0.5,1.1,1.1,1.1S20.4,4.4,20.4,3.8z M13.6,7.2
	C13.9,7,14,6.7,14,6.5c0-0.3-0.1-0.6-0.3-0.8l-1.8-1.8c-0.2-0.2-0.5-0.3-0.8-0.3c-0.3,0-0.6,0.1-0.8,0.3c-0.4,0.4-0.4,1.1,0,1.6
	l1.8,1.8c0.2,0.2,0.5,0.3,0.8,0.3C13.2,7.6,13.4,7.4,13.6,7.2z M26.5,7.2l1.8-1.8c0.4-0.4,0.4-1.1,0-1.6c-0.2-0.2-0.5-0.3-0.8-0.3
	c-0.3,0-0.6,0.1-0.8,0.3L25,5.7c-0.4,0.4-0.4,1.1,0,1.6c0.2,0.2,0.5,0.3,0.8,0.3C26,7.6,26.3,7.4,26.5,7.2z"/>
</svg>
