<?xml version="1.0" encoding="utf-8"?>
<!-- Generator: Adobe Illustrator 23.0.2, SVG Export Plug-In . SVG Version: 6.00 Build 0)  -->
<svg version="1.1" id="Layer_1" xmlns="http://www.w3.org/2000/svg" xmlns:xlink="http://www.w3.org/1999/xlink" x="0px" y="0px"
	 viewBox="0 0 23 34.6" style="enable-background:new 0 0 23 34.6;" xml:space="preserve">
<style type="text/css">
	.st0{fill:#C2C2C2;}
</style>
<path class="st0" d="M11.5,1.5c5.5,0,10,4.5,10,10v11.6c0,5.5-4.5,10-10,10s-10-4.5-10-10V11.5C1.5,6,6,1.5,11.5,1.5 M11.5,0
	C5.1,0,0,5.1,0,11.5v11.6c0,6.4,5.1,11.5,11.5,11.5S23,29.5,23,23.1V11.5C23,5.1,17.9,0,11.5,0L11.5,0z M11.5,15.8
	c1.4,0,2.5-1.1,2.5-2.5s-1.1-2.5-2.5-2.5S9,11.9,9,13.3S10.1,15.8,11.5,15.8z"/>
</svg>
