<?xml version="1.0" encoding="utf-8"?>
<!-- Generator: Adobe Illustrator 23.0.2, SVG Export Plug-In . SVG Version: 6.00 Build 0)  -->
<svg version="1.1" id="Layer_1" xmlns="http://www.w3.org/2000/svg" xmlns:xlink="http://www.w3.org/1999/xlink" x="0px" y="0px"
	 viewBox="0 0 9 14.7" style="enable-background:new 0 0 9 14.7;" xml:space="preserve">
<style type="text/css">
	.st0{fill:#686868;}
</style>
<path class="st0" d="M9,13.9c-0.5,0.3-1.1,0.5-1.7,0.6c-0.5,0.1-1.1,0.2-1.6,0.2c-0.6,0-1.2-0.1-1.8-0.3c-0.6-0.2-1-0.5-1.3-0.7
	c-0.4-0.3-0.6-0.7-0.7-1c-0.2-0.3-0.2-0.8-0.2-1.5V6H0V3.9c0.6-0.2,1.1-0.5,1.5-0.8c0.4-0.3,0.7-0.8,1-1.3C2.7,1.3,2.9,0.7,2.9,0H5
	v3.7h3.5V6H5v3.8c0,0.9,0,1.4,0.1,1.6c0.1,0.3,0.3,0.4,0.5,0.6c0.3,0.2,0.7,0.3,1.1,0.3c0.7,0,1.5-0.2,2.2-0.7V13.9z"/>
</svg>
