<?xml version="1.0" encoding="utf-8"?>
<!-- Generator: Adobe Illustrator 23.0.2, SVG Export Plug-In . SVG Version: 6.00 Build 0)  -->
<svg version="1.1" id="Layer_1" xmlns="http://www.w3.org/2000/svg" xmlns:xlink="http://www.w3.org/1999/xlink" x="0px" y="0px"
	 viewBox="0 0 13.9 11.3" style="enable-background:new 0 0 13.9 11.3;" xml:space="preserve">
<style type="text/css">
	.st0{fill:#686868;}
</style>
<path class="st0" d="M12.3,1.8c0.5-0.1,1.1-0.2,1.6-0.4c-0.4,0.6-0.9,1.1-1.4,1.5v0.4c0,0.8-0.1,1.5-0.3,2.3c-0.2,0.8-0.6,1.5-1,2.2
	c-0.5,0.7-1,1.3-1.6,1.9c-0.6,0.5-1.4,1-2.3,1.3c-0.9,0.3-1.8,0.5-2.9,0.5c-1.6,0-3.1-0.4-4.4-1.3c0.2,0,0.4,0,0.7,0
	c1.3,0,2.5-0.4,3.5-1.2C3.6,8.8,3,8.6,2.6,8.3c-0.5-0.4-0.8-0.8-1-1.4c0.2,0,0.4,0,0.5,0c0.3,0,0.5,0,0.8-0.1
	c-0.7-0.1-1.2-0.5-1.6-1C0.8,5.3,0.6,4.7,0.6,4v0C1,4.2,1.4,4.3,1.9,4.3c-0.4-0.3-0.7-0.6-0.9-1C0.7,2.9,0.6,2.5,0.6,1.9
	c0-0.5,0.1-1,0.4-1.4c0.7,0.9,1.6,1.6,2.6,2.1c1,0.5,2.1,0.8,3.3,0.9C6.8,3.3,6.8,3.1,6.8,2.8c0-0.8,0.3-1.5,0.8-2
	C8.2,0.3,8.8,0,9.6,0c0.8,0,1.5,0.3,2.1,0.9c0.6-0.1,1.2-0.4,1.8-0.7C13.3,0.9,12.9,1.4,12.3,1.8L12.3,1.8z"/>
</svg>
