<?xml version="1.0" encoding="utf-8"?>
<!-- Generator: Adobe Illustrator 23.0.2, SVG Export Plug-In . SVG Version: 6.00 Build 0)  -->
<svg version="1.1" id="Layer_1" xmlns="http://www.w3.org/2000/svg" xmlns:xlink="http://www.w3.org/1999/xlink" x="0px" y="0px"
	 viewBox="0 0 1511 320" style="enable-background:new 0 0 1511 320;" xml:space="preserve">
<style type="text/css">
	.st0{fill:#121212;}
	.st1{fill:#0A0A0C;}
	.st2{fill:#C8C8C8;}
	.st3{fill:#232732;}
	.st4{fill:#CF2027;}
	.st5{fill:#DC252A;}
	.st6{fill:#686868;}
	.st7{fill:#DE232A;}
	.st8{fill:#808080;}
	.st9{fill-rule:evenodd;clip-rule:evenodd;fill:#111111;}
	.st10{fill:#C9C9C8;}
	.st11{fill:#C2C2C2;}
</style>
<polygon class="st0" points="1098,151 1096.9,152 1101.2,156.2 1074,156.2 1074,157.8 1101.2,157.8 1096.9,162 1098,163 1104.1,157 
	"/>
<polygon class="st0" points="1066,156.2 1038.8,156.2 1043,152 1042,151 1035.9,157 1042,163 1043,162 1038.8,157.8 1066,157.8 "/>
<path class="st1" d="M464.9,159.9c-0.6-0.6-2-2-2-2l-1.6-1.6c0.8-1.2,1.3-2.6,1.3-4.1c0-4-3.2-7.2-7.2-7.2c-4,0-7.2,3.2-7.2,7.2
	c0,4,3.2,7.2,7.2,7.2c1.7,0,3.2-0.6,4.4-1.5l2.8,2.8c0,0,0.1,0.1,0.1,0.1c0,0-0.2-0.2,0.7,0.7C464.1,162.1,465.5,160.9,464.9,159.9z
	 M455.4,157.6c-3,0-5.5-2.5-5.5-5.5c0-3,2.5-5.5,5.5-5.5c3,0,5.5,2.5,5.5,5.5c0,1.3-0.4,2.4-1.1,3.3c-0.2,0.3-0.5,0.6-0.8,0.8
	C457.9,157.2,456.7,157.6,455.4,157.6z"/>
<rect x="432.7" y="138.1" class="st2" width="1" height="30.4"/>
<rect x="479.5" y="138.1" class="st2" width="1" height="30.4"/>
<rect x="383.6" y="138.1" class="st2" width="1" height="30.4"/>
<path class="st1" d="M399.1,145.4c0-0.4,0.3-0.7,0.7-0.7h2.5c0.3,0,0.6,0.2,0.7,0.5l2.9,10.4h7.8l2.6-6h-8.7c-0.4,0-0.7-0.3-0.7-0.7
	s0.3-0.7,0.7-0.7h9.8c0.2,0,0.5,0.1,0.6,0.3c0.1,0.2,0.2,0.4,0.1,0.7l-3.2,7.4c-0.1,0.3-0.4,0.4-0.6,0.4h-8.8
	c-0.3,0-0.6-0.2-0.7-0.5l-2.9-10.4h-2C399.5,146.1,399.1,145.8,399.1,145.4z M404.7,162c0.9,0,1.6-0.7,1.6-1.6
	c0-0.9-0.7-1.6-1.6-1.6s-1.6,0.7-1.6,1.6S403.9,162,404.7,162z M414.7,162c0,0,0.1,0,0.1,0c0.4,0,0.8-0.2,1.1-0.6
	c0.3-0.3,0.4-0.7,0.4-1.2c-0.1-0.9-0.8-1.5-1.7-1.5c-0.9,0.1-1.5,0.8-1.5,1.7C413.2,161.3,413.9,162,414.7,162z"/>
<path class="st3" d="M356.2,155.6c-0.8-0.8-1.8-1.5-2.8-1.9c1.2-1,1.8-2.4,1.8-3.9c0-2.8-2.3-5-5-5s-5,2.3-5,5
	c0,1.5,0.7,2.9,1.8,3.9c-1.1,0.4-2,1.1-2.8,1.9c-1.6,1.6-2.5,3.8-2.5,6v0.2h1.8v-0.2c0-3.7,3-6.8,6.8-6.8s6.8,3,6.8,6.8v0.2h1.8
	v-0.2C358.7,159.3,357.8,157.2,356.2,155.6z M350.2,146.5c1.8,0,3.3,1.5,3.3,3.3c0,1.8-1.5,3.3-3.3,3.3s-3.3-1.5-3.3-3.3
	C346.9,148,348.4,146.5,350.2,146.5z"/>
<polygon class="st4" points="365.6,155.8 361.8,151.9 362.5,151.2 365.6,154.4 368.8,151.2 369.5,151.9 "/>
<polygon class="st4" points="538,155.8 534.1,151.9 534.9,151.2 538,154.4 541.1,151.2 541.9,151.9 "/>
<path d="M529,142.9l-4.4,9.2c-0.2,0.4-0.2,0.8,0,1.2l4.4,9.2h-34v-19.6H529 M529,141.9h-34c-0.6,0-1,0.4-1,1v19.6c0,0.6,0.4,1,1,1
	h34c0.3,0,0.7-0.2,0.8-0.5c0.2-0.3,0.2-0.7,0.1-1l-4.4-9.2c-0.1-0.1-0.1-0.2,0-0.3l4.4-9.2c0.1-0.3,0.1-0.7-0.1-1
	C529.7,142.1,529.3,141.9,529,141.9L529,141.9z M529,143.9L529,143.9L529,143.9L529,143.9z"/>
<g>
	<g>
		<circle class="st0" cx="920.2" cy="155.9" r="5.7"/>
	</g>
	<g>
		<path class="st0" d="M946.1,151.7c2.3,0,4.2,1.9,4.2,4.2s-1.9,4.2-4.2,4.2s-4.2-1.9-4.2-4.2S943.7,151.7,946.1,151.7 M946.1,150.2
			c-3.2,0-5.7,2.6-5.7,5.7s2.6,5.7,5.7,5.7c3.2,0,5.7-2.6,5.7-5.7S949.3,150.2,946.1,150.2L946.1,150.2z"/>
	</g>
	<g>
		<path class="st0" d="M971.9,151.7c2.3,0,4.2,1.9,4.2,4.2s-1.9,4.2-4.2,4.2s-4.2-1.9-4.2-4.2S969.6,151.7,971.9,151.7 M971.9,150.2
			c-3.2,0-5.7,2.6-5.7,5.7s2.6,5.7,5.7,5.7c3.2,0,5.7-2.6,5.7-5.7S975.1,150.2,971.9,150.2L971.9,150.2z"/>
	</g>
	<g>
		<path class="st0" d="M997.8,151.7c2.3,0,4.2,1.9,4.2,4.2s-1.9,4.2-4.2,4.2s-4.2-1.9-4.2-4.2S995.4,151.7,997.8,151.7 M997.8,150.2
			c-3.2,0-5.7,2.6-5.7,5.7s2.6,5.7,5.7,5.7s5.7-2.6,5.7-5.7S1000.9,150.2,997.8,150.2L997.8,150.2z"/>
	</g>
</g>
<g>
	<path class="st5" d="M1144.5,149.3c-2.4,0-4.3,1.9-4.3,4.3c0,1,0.6,2.5,1.9,4.8c0.9,1.6,1.8,2.9,1.8,3l0.6,1l0.6-1
		c0-0.1,0.9-1.4,1.8-3c1.3-2.2,1.9-3.8,1.9-4.8C1148.8,151.2,1146.9,149.3,1144.5,149.3z M1144.5,155.8c-1.2,0-2.2-1-2.2-2.2
		s1-2.2,2.2-2.2c1.2,0,2.2,1,2.2,2.2S1145.8,155.8,1144.5,155.8z"/>
</g>
<g>
	<path class="st5" d="M1182.7,163.4l4.5-10.5c0.1-0.1,0-0.3-0.1-0.4c-0.1-0.1-0.3-0.1-0.4-0.1l-10.5,4.5c-0.1,0.1-0.2,0.2-0.2,0.3v0
		c0,0.2,0.1,0.3,0.2,0.3l4.1,1.7l1.7,4.1c0.1,0.1,0.2,0.2,0.3,0.2C1182.5,163.6,1182.7,163.5,1182.7,163.4z"/>
</g>
<path class="st6" d="M1320.3,165.2h-6.3c-2.3,0-4.2-1.9-4.2-4.2v-6.3c0-2.3,1.9-4.2,4.2-4.2h6.3c2.3,0,4.2,1.9,4.2,4.2v6.3
	C1324.5,163.3,1322.6,165.2,1320.3,165.2z M1313.9,151.7c-1.6,0-2.9,1.3-2.9,2.9v6.3c0,1.6,1.3,2.9,2.9,2.9h6.3
	c1.6,0,2.9-1.3,2.9-2.9v-6.3c0-1.6-1.3-2.9-2.9-2.9H1313.9z"/>
<path class="st6" d="M1317.1,161.6c-2.1,0-3.8-1.7-3.8-3.8c0-2.1,1.7-3.8,3.8-3.8c2.1,0,3.8,1.7,3.8,3.8
	C1320.9,159.9,1319.2,161.6,1317.1,161.6z M1317.1,155.3c-1.4,0-2.5,1.1-2.5,2.5c0,1.4,1.1,2.5,2.5,2.5c1.4,0,2.5-1.1,2.5-2.5
	C1319.6,156.4,1318.5,155.3,1317.1,155.3z"/>
<path class="st6" d="M1322,153.8c0,0.5-0.4,0.9-0.9,0.9s-0.9-0.4-0.9-0.9c0-0.5,0.4-0.9,0.9-0.9S1322,153.3,1322,153.8z"/>
<path class="st6" d="M1241.1,155.3h2.3l-0.3,2.5h-2v7.4h-3v-7.4h-1.5v-2.5h1.5v-1.5c0-1.1,0.3-1.9,0.8-2.5c0.5-0.6,1.4-0.8,2.5-0.8
	h2v2.5h-1.3c-0.2,0-0.4,0-0.6,0.1c-0.1,0-0.2,0.1-0.3,0.2c-0.1,0.1-0.1,0.2-0.1,0.3l0,0.4V155.3z"/>
<path class="st6" d="M1285.8,153.9c0.5-0.1,1.1-0.2,1.6-0.4c-0.4,0.6-0.9,1.1-1.4,1.5v0.4c0,0.8-0.1,1.5-0.3,2.3
	c-0.2,0.8-0.6,1.5-1,2.2c-0.5,0.7-1,1.3-1.6,1.9c-0.6,0.5-1.4,1-2.3,1.3c-0.9,0.3-1.8,0.5-2.9,0.5c-1.6,0-3.1-0.4-4.4-1.3
	c0.2,0,0.4,0,0.7,0c1.3,0,2.5-0.4,3.5-1.2c-0.6,0-1.2-0.2-1.7-0.6c-0.5-0.4-0.8-0.8-1-1.4c0.2,0,0.4,0,0.5,0c0.3,0,0.5,0,0.8-0.1
	c-0.7-0.1-1.2-0.5-1.6-1c-0.4-0.5-0.6-1.1-0.6-1.8v0c0.4,0.2,0.8,0.3,1.3,0.4c-0.4-0.3-0.7-0.6-0.9-1c-0.2-0.4-0.3-0.9-0.3-1.4
	c0-0.5,0.1-1,0.4-1.4c0.7,0.9,1.6,1.6,2.6,2.1c1,0.5,2.1,0.8,3.3,0.9c-0.1-0.2-0.1-0.4-0.1-0.6c0-0.8,0.3-1.5,0.8-2
	c0.6-0.5,1.2-0.8,2-0.8c0.8,0,1.5,0.3,2.1,0.9c0.6-0.1,1.2-0.4,1.8-0.7C1286.9,153,1286.5,153.6,1285.8,153.9L1285.8,153.9z"/>
<path class="st6" d="M1363.6,157.8c0,0.6,0,1,0,1.3c0,0.3,0,0.7-0.1,1.2c0,0.5-0.1,0.9-0.2,1.3c-0.1,0.4-0.3,0.8-0.6,1.1
	c-0.3,0.3-0.7,0.5-1.1,0.5c-1.3,0.1-3.3,0.2-5.9,0.2c-2.7,0-4.6-0.1-5.9-0.2c-0.4,0-0.8-0.2-1.1-0.5c-0.3-0.3-0.5-0.7-0.6-1.1
	c-0.1-0.4-0.1-0.8-0.2-1.3c-0.1-0.5-0.1-0.9-0.1-1.2c0-0.3,0-0.8,0-1.3c0-0.6,0-1,0-1.3c0-0.3,0.1-0.7,0.1-1.2
	c0-0.5,0.1-0.9,0.2-1.3c0.1-0.4,0.3-0.8,0.6-1.1c0.3-0.3,0.7-0.5,1.1-0.5c1.3-0.1,3.3-0.2,5.9-0.2c2.6,0,4.6,0.1,5.9,0.2
	c0.4,0,0.8,0.2,1.1,0.5c0.3,0.3,0.5,0.7,0.6,1.1c0.1,0.4,0.1,0.8,0.2,1.3c0,0.5,0.1,0.9,0.1,1.2
	C1363.6,156.8,1363.6,157.2,1363.6,157.8z M1358.8,158.3c0.2-0.1,0.3-0.3,0.3-0.5c0-0.2-0.1-0.4-0.3-0.5l-4.5-2.8
	c-0.2-0.1-0.4-0.1-0.6,0c-0.2,0.1-0.3,0.3-0.3,0.5v5.7c0,0.2,0.1,0.4,0.3,0.5c0.1,0,0.2,0.1,0.3,0.1c0.1,0,0.2,0,0.3-0.1
	L1358.8,158.3L1358.8,158.3z"/>
<path class="st6" d="M1398.8,164.3c-0.5,0.3-1.1,0.5-1.7,0.6c-0.5,0.1-1.1,0.2-1.6,0.2c-0.6,0-1.2-0.1-1.8-0.3
	c-0.6-0.2-1-0.5-1.3-0.7c-0.4-0.3-0.6-0.7-0.7-1c-0.2-0.3-0.2-0.8-0.2-1.5v-5.2h-1.6v-2.1c0.6-0.2,1.1-0.5,1.5-0.8
	c0.4-0.3,0.7-0.8,1-1.3c0.3-0.6,0.4-1.2,0.5-1.9h2.1v3.7h3.5v2.3h-3.5v3.8c0,0.9,0,1.4,0.1,1.6c0.1,0.3,0.3,0.4,0.5,0.6
	c0.3,0.2,0.7,0.3,1.1,0.3c0.7,0,1.5-0.2,2.2-0.7V164.3z"/>
<path class="st7" d="M297.5,148c-4.1,0-7.5,3.4-7.5,7.5s3.4,7.5,7.5,7.5s7.5-3.4,7.5-7.5S301.7,148,297.5,148z M297.5,162
	c-3.6,0-6.5-2.9-6.5-6.5s2.9-6.5,6.5-6.5s6.5,2.9,6.5,6.5S301.1,162,297.5,162z M299.6,155.4c0,0,0.1,0.1,0.1,0.1
	c0,0.1,0,0.1-0.1,0.1l-3.4,2.3c0,0-0.1,0-0.1,0c0,0,0,0-0.1,0c-0.1,0-0.1-0.1-0.1-0.1v-4.7c0-0.1,0-0.1,0.1-0.1c0.1,0,0.1,0,0.2,0
	L299.6,155.4z"/>
<path class="st7" d="M598,176.5c-0.3,0-0.6-0.1-0.8-0.4L579,155.2c-0.3-0.4-0.4-0.8-0.2-1.2l5.2-10.4c0.2-0.4,0.5-0.6,1-0.6h26
	c0.4,0,0.7,0.2,1,0.6l5.2,10.4c0.2,0.4,0.1,0.9-0.2,1.2l-18.2,20.9C598.6,176.4,598.3,176.5,598,176.5z M600.1,170.8l0.3,0.2
	l13.4-15.4h-7.3L600.1,170.8z M595.6,171l0.3-0.2l-6.5-15.1h-7.3L595.6,171z M598,170l6.1-14.4h-12.3L598,170z M607.6,153.4h6.8
	l-3.4-6.8L607.6,153.4z M592.4,153.4h11.2L598,146L592.4,153.4z M581.6,153.4h6.8l-3.4-6.8L581.6,153.4z M590.4,152.4l5.4-7.2h-9
	L590.4,152.4z M605.6,152.4l3.6-7.2h-9L605.6,152.4z M599.1,136.3v-2.7c0-0.6-0.5-1.1-1.1-1.1s-1.1,0.5-1.1,1.1v2.7
	c0,0.6,0.5,1.1,1.1,1.1S599.1,136.9,599.1,136.3z M592.3,139.8c0.2-0.2,0.3-0.5,0.3-0.8c0-0.3-0.1-0.6-0.3-0.8l-1.8-1.8
	c-0.2-0.2-0.5-0.3-0.8-0.3c-0.3,0-0.6,0.1-0.8,0.3c-0.4,0.4-0.4,1.1,0,1.6l1.8,1.8c0.2,0.2,0.5,0.3,0.8,0.3
	C591.9,140.1,592.1,140,592.3,139.8z M605.2,139.8l1.8-1.8c0.4-0.4,0.4-1.1,0-1.6c-0.2-0.2-0.5-0.3-0.8-0.3c-0.3,0-0.6,0.1-0.8,0.3
	l-1.8,1.8c-0.4,0.4-0.4,1.1,0,1.6c0.2,0.2,0.5,0.3,0.8,0.3C604.7,140.1,605,140,605.2,139.8z"/>
<path class="st7" d="M676,133.9c2.5,0,4.5-2,4.5-4.5s-2-4.5-4.5-4.5s-4.5,2-4.5,4.5S673.5,133.9,676,133.9z M676,127.2
	c1.2,0,2.2,1,2.2,2.2c0,1.2-1,2.2-2.2,2.2c-1.2,0-2.2-1-2.2-2.2C673.8,128.2,674.8,127.2,676,127.2z M677.6,134.6
	C677.6,134.6,677.6,134.6,677.6,134.6l-3.2,0c-3.4-0.1-6.1,2.5-6.2,5.9c0,0,0,0,0,0.1v0.9c0,0.6,0.6,0.9,1.2,0.9h13.1
	c0.6,0,1.2-0.3,1.2-0.9v-0.9C683.7,137.2,681,134.6,677.6,134.6z M670.5,140.2c0.1-1.7,1.8-3.3,3.9-3.3h3.1c2.1,0,3.8,1.7,3.9,3.3
	H670.5z M657.9,153.3c-0.6,0-1.1-0.5-1.1-1.1c0-5.8,2.6-11.3,7.2-15c0.4-0.3,1-0.2,1.4,0.2c0.4,0.4,0.4,1.1,0,1.6
	c-4,3.2-6.4,8.1-6.3,13.3C659,152.8,658.5,153.3,657.9,153.3L657.9,153.3z M681.4,168.3c0.6-0.2,1.2,0.1,1.4,0.7
	c0.2,0.6-0.1,1.2-0.7,1.4c-4,1.3-8.2,1.3-12.2,0c0,0,0,0-0.1,0c-0.5-0.2-0.8-0.8-0.6-1.4c0.2-0.6,0.8-0.9,1.4-0.7
	C674.1,169.4,677.9,169.4,681.4,168.3C681.4,168.3,681.4,168.3,681.4,168.3L681.4,168.3z M685.8,138.3c-0.5-0.4-0.6-1.1-0.3-1.6
	c0.4-0.5,1.1-0.6,1.6-0.3c5.1,3.6,8.1,9.5,8.1,15.7c0,0.6-0.5,1.1-1.1,1.1s-1.1-0.5-1.1-1.1C693,146.7,690.3,141.5,685.8,138.3
	L685.8,138.3z M659.3,164.5c2.5,0,4.5-2,4.5-4.5s-2-4.5-4.5-4.5c-2.5,0-4.5,2-4.5,4.5S656.8,164.5,659.3,164.5z M659.3,157.9
	c1.2,0,2.2,1,2.2,2.2s-1,2.2-2.2,2.2c-1.2,0-2.2-1-2.2-2.2S658.1,157.9,659.3,157.9z M660.9,165.3
	C660.9,165.3,660.9,165.3,660.9,165.3l-3.2,0c-3.4-0.1-6.1,2.5-6.2,5.9c0,0,0,0,0,0.1v0.9c0,0.6,0.6,0.9,1.2,0.9h13.1
	c0.6,0,1.2-0.3,1.2-0.9v-0.9C667,167.9,664.3,165.2,660.9,165.3z M653.8,170.8c0.1-1.7,1.8-3.3,3.9-3.3h3.1c2.1,0,3.8,1.7,3.9,3.3
	H653.8z M688.2,160.1c0,2.5,2,4.5,4.5,4.5s4.5-2,4.5-4.5s-2-4.5-4.5-4.5S688.2,157.6,688.2,160.1z M694.9,160.1c0,1.2-1,2.2-2.2,2.2
	c-1.2,0-2.2-1-2.2-2.2s1-2.2,2.2-2.2C693.9,157.9,694.9,158.8,694.9,160.1z M694.3,165.3C694.3,165.3,694.3,165.3,694.3,165.3
	l-3.2,0c-3.4-0.1-6.1,2.5-6.2,5.9c0,0,0,0,0,0.1v0.9c0,0.6,0.6,0.9,1.2,0.9h13.1c0.6,0,1.2-0.3,1.2-0.9v-0.9
	C700.4,167.9,697.7,165.2,694.3,165.3L694.3,165.3z M687.2,170.8c0.1-1.7,1.8-3.3,3.9-3.3h3.1c2.1,0,3.8,1.7,3.9,3.3H687.2z"/>
<path class="st7" d="M778.6,140.1c-0.4-0.4-0.4-1.1,0-1.5c0.4-0.4,1.1-0.4,1.5,0c0.4,0.4,0.4,1.1,0,1.5
	C779.7,140.5,779,140.5,778.6,140.1z M750.8,142.3c0.4-0.4,0.4-1.1,0-1.5c-0.4-0.4-1.1-0.4-1.5,0c-0.4,0.4-0.4,1.1,0,1.5
	C749.7,142.7,750.4,142.7,750.8,142.3z M744.6,148.3l3.2-3.2c0.4-0.4,0.4-1.1,0-1.5c-0.4-0.4-1.1-0.4-1.5,0l-3.2,3.2
	c-0.4,0.4-0.4,1.1,0,1.5C743.5,148.7,744.1,148.7,744.6,148.3z M783.6,145.3c0.4,0.4,1.1,0.4,1.5,0c0.4-0.4,0.4-1.1,0-1.5l-2.1-2.1
	c-0.4-0.4-1.1-0.4-1.5,0c-0.4,0.4-0.4,1.1,0,1.5L783.6,145.3z M790.7,145.6c-13.7,13.7-4.4,4.4-11.8,11.7l0.4,0.4
	c1.4,1.4,1.4,3.8,0,5.2c-0.7,0.7-1.7,1.1-2.6,1.1c0,1-0.4,2-1.1,2.7c-0.7,0.7-1.6,1.1-2.6,1.1c0,1-0.3,1.9-1.1,2.6
	c-0.7,0.7-1.6,1.1-2.6,1.1c0,1-0.4,2-1.1,2.6c-1.4,1.4-3.8,1.4-5.2,0l-0.4-0.4l-0.4,0.4c-1.4,1.4-3.8,1.4-5.2,0
	c-0.7-0.7-1.1-1.6-1.1-2.7c-1,0-2-0.4-2.6-1.1c-0.7-0.7-1.1-1.6-1.1-2.7c-1,0-1.9-0.4-2.6-1.1c-0.7-0.7-1.1-1.6-1.1-2.7
	c-1,0-2-0.4-2.6-1.1c-1.4-1.4-1.4-3.8,0-5.2l0.4-0.4c0,0-8.8-8.8-8.8-8.8c0,0,0,0,0,0c-0.4-0.4-0.4-1.1,0-1.5l13.5-13.5
	c0.4-0.4,1.1-0.4,1.5,0l5.3,5.3c2.1,0.2,3.6,0.9,4.9,2.1c1.6-1.5,3.6-2.3,6.1-2.3c1.2,0,2.3-0.5,3.3-1.5c0,0,0,0,0,0
	c0.1-0.1,4.4-4.2,5.3-5c0.4-0.4,1.1-0.4,1.5,0l11.9,11.9C791.1,144.5,791.1,145.2,790.7,145.6z M743.6,151.8l12-12l-4.1-4.1l-12,12
	L743.6,151.8z M749.5,161.4l3.7-3.7c0.6-0.6,0.6-1.6,0-2.2c-0.6-0.6-1.6-0.6-2.2,0l-3.7,3.7c-0.6,0.6-0.6,1.6,0,2.2
	C747.9,162,748.9,162,749.5,161.4z M753.2,165.2l3.7-3.7c0,0,0,0,0,0c0.6-0.6,0.6-1.6,0-2.2c-0.6-0.6-1.6-0.6-2.2,0l-3.7,3.7
	c-0.6,0.6-0.6,1.6,0,2.2C751.6,165.8,752.6,165.8,753.2,165.2z M756.9,168.9l3.7-3.7c0,0,0,0,0,0c0.6-0.6,0.6-1.6,0-2.2
	c-0.6-0.6-1.6-0.6-2.2,0l-3.7,3.7c-0.6,0.6-0.6,1.6,0,2.2C755.3,169.5,756.3,169.5,756.9,168.9z M760.7,172.6l3.7-3.7
	c0.6-0.6,0.6-1.6,0-2.2c-0.6-0.6-1.6-0.6-2.2,0l-3.7,3.7c-0.6,0.6-0.6,1.6,0,2.2C759,173.2,760,173.2,760.7,172.6z M766.6,170.4
	L766.6,170.4C766.6,170.4,766.6,170.4,766.6,170.4l-0.4-0.4c-0.1,0.1-0.2,0.3-0.3,0.4l-1.9,1.9l0.4,0.4c0.6,0.6,1.6,0.6,2.2,0
	C767.2,172,767.2,171,766.6,170.4z M777.8,159.2c-1.4-1.4-8.9-8.9-10.8-10.8l-3,3c-1.6,1.6-4.3,1.6-6,0c-1.6-1.6-1.6-4.3,0-6l3-3
	c-0.9-0.9-2-1.3-3.5-1.5l-12.4,12.4l2.5,2.5l1.9-1.9c1.4-1.4,3.8-1.4,5.2,0c0.7,0.7,1.1,1.6,1.1,2.6c2.1,0,3.7,1.7,3.7,3.7
	c1,0,1.9,0.3,2.6,1.1c0.7,0.7,1.1,1.6,1.1,2.6c1,0,1.9,0.4,2.6,1.1c0.7,0.7,1.1,1.6,1.1,2.6c1,0.8,1.3,1.6,2.3,1.6
	c0.4,0,0.8-0.2,1.1-0.5c0.6-0.6,0.6-1.6,0-2.2l-4.8-4.8c-0.4-0.4-0.4-1.1,0-1.5c0.4-0.4,1.1-0.4,1.5,0l4.8,4.8
	c0.6,0.6,1.6,0.6,2.2,0s0.6-1.6,0-2.2l-4.8-4.8c-0.4-0.4-0.4-1.1,0-1.5c0.4-0.4,1.1-0.4,1.5,0l4.8,4.8c0.6,0.6,1.6,0.6,2.2,0
	C778.4,160.8,778.4,159.8,777.8,159.2z M783.1,150.2l-10.5-10.8c-1.2,0.9-2.5,1.4-4,1.4c-2.1,0-3.6,0.6-4.8,1.8
	c-1.1,1.1-3.2,3.2-4.3,4.3c-0.8,0.8-0.8,2.2,0,3c0.8,0.8,2.2,0.8,3,0l5.2-5.2c0.4-0.4,1.1-0.4,1.5,0c0.4,0.4,0.4,1.1,0,1.5l-0.7,0.7
	l9,9C777.6,155.7,776.3,157,783.1,150.2z M788.5,144.8L778,134.4l-3.8,3.6l10.4,10.7L788.5,144.8z"/>
<g>
	<g>
		<polygon class="st7" points="239.8,156.1 241.7,154.3 246.1,158.7 257.5,147.3 259.3,149.1 246.1,162.3 		"/>
	</g>
	<g>
		<path class="st7" d="M246.1,162.5l-6.4-6.4l2-2l4.4,4.4l11.4-11.4l2,2l-0.1,0.1L246.1,162.5z M240,156.1l6.1,6.1l13-13l-1.6-1.6
			l-11.4,11.4l-4.4-4.4L240,156.1z"/>
	</g>
</g>
<path class="st8" d="M183.3,156.8c-0.7-0.7-2.5-2.5-2.5-2.5l-2-2c1-1.5,1.7-3.2,1.7-5.2c0-4.9-4-9-9-9c-4.9,0-9,4-9,9c0,4.9,4,9,9,9
	c2.1,0,4-0.7,5.5-1.9l3.5,3.5c0,0,0.1,0.1,0.1,0.1c0,0-0.3-0.3,0.9,0.9C182.3,159.5,184.1,158,183.3,156.8z M171.5,153.9
	c-3.8,0-6.8-3.1-6.8-6.8c0-3.8,3.1-6.8,6.8-6.8c3.8,0,6.8,3.1,6.8,6.8c0,1.6-0.5,3-1.4,4.2c-0.3,0.4-0.6,0.7-1,1
	C174.7,153.3,173.1,153.9,171.5,153.9z"/>
<path class="st9" d="M820.4,151.9v-5.3h5.3v5.3H820.4z M832.9,151.9v-5.3h-5.3v5.3H832.9z M840.1,151.9v-5.3h-5.3v5.3H840.1z
	 M840.1,159.1v-5.3h-5.3v5.3H840.1z M840.1,166.2v-5.3h-5.3v5.3H840.1z M832.9,166.2v-5.3h-5.3v5.3H832.9z M825.8,166.2v-5.3h-5.3
	v5.3H825.8z M825.8,159.1v-5.3h-5.3v5.3H825.8z M832.9,159.1v-5.3h-5.3v5.3H832.9z"/>
<g>
	<path class="st10" d="M848.6,151.8"/>
</g>
<g>
	<path class="st10" d="M848.6,162.8"/>
</g>
<g>
	<path class="st10" d="M848.6,157.3"/>
</g>
<g>
	<path class="st10" d="M848.6,146.4"/>
</g>
<path class="st10" d="M852.2,166.2c-0.1,0-0.1,0-0.2-0.1c-0.1-0.1-0.1-0.1-0.1-0.2v-2.7c0-0.1,0-0.1,0.1-0.2
	c0.1-0.1,0.1-0.1,0.2-0.1h21.6c0.1,0,0.1,0,0.2,0.1c0.1,0.1,0.1,0.1,0.1,0.2v2.7c0,0.1,0,0.1-0.1,0.2c-0.1,0.1-0.1,0.1-0.2,0.1
	H852.2z M873.8,160.7c0.1,0,0.1,0,0.2-0.1c0.1-0.1,0.1-0.1,0.1-0.2v-2.7c0-0.1,0-0.1-0.1-0.2s-0.1-0.1-0.2-0.1h-21.6
	c-0.1,0-0.1,0-0.2,0.1c-0.1,0.1-0.1,0.1-0.1,0.2v2.7c0,0.1,0,0.1,0.1,0.2c0.1,0.1,0.1,0.1,0.2,0.1H873.8z M873.8,149.8
	c0.1,0,0.1,0,0.2-0.1s0.1-0.1,0.1-0.2v-2.7c0-0.1,0-0.1-0.1-0.2c-0.1-0.1-0.1-0.1-0.2-0.1h-21.6c-0.1,0-0.1,0-0.2,0.1
	c-0.1,0.1-0.1,0.1-0.1,0.2v2.7c0,0.1,0,0.1,0.1,0.2c0.1,0.1,0.1,0.1,0.2,0.1H873.8z M873.8,155.3c0.1,0,0.1,0,0.2-0.1
	c0.1-0.1,0.1-0.1,0.1-0.2v-2.7c0-0.1,0-0.1-0.1-0.2s-0.1-0.1-0.2-0.1h-21.6c-0.1,0-0.1,0-0.2,0.1c-0.1,0.1-0.1,0.1-0.1,0.2v2.7
	c0,0.1,0,0.1,0.1,0.2c0.1,0.1,0.1,0.1,0.2,0.1H873.8z"/>
<path class="st11" d="M119.5,132.5c5.5,0,10,4.5,10,10v11.6c0,5.5-4.5,10-10,10s-10-4.5-10-10v-11.6
	C109.5,137,114,132.5,119.5,132.5 M119.5,131c-6.4,0-11.5,5.1-11.5,11.5v11.6c0,6.4,5.1,11.5,11.5,11.5s11.5-5.1,11.5-11.5v-11.6
	C131,136.2,125.9,131,119.5,131L119.5,131z M119.5,146.8c1.4,0,2.5-1.1,2.5-2.5s-1.1-2.5-2.5-2.5s-2.5,1.1-2.5,2.5
	S118.1,146.8,119.5,146.8z"/>
</svg>
