<?xml version="1.0" encoding="utf-8"?>
<!-- Generator: Adobe Illustrator 23.0.2, SVG Export Plug-In . SVG Version: 6.00 Build 0)  -->
<svg version="1.1" id="Layer_1" xmlns="http://www.w3.org/2000/svg" xmlns:xlink="http://www.w3.org/1999/xlink" x="0px" y="0px"
	 viewBox="0 0 22.1 19.6" style="enable-background:new 0 0 22.1 19.6;" xml:space="preserve">
<style type="text/css">
	.st0{fill:#111111;}
</style>
<path class="st0" d="M0.3,19.6c-0.1,0-0.1,0-0.2-0.1C0,19.5,0,19.5,0,19.4v-2.7c0-0.1,0-0.1,0.1-0.2c0.1-0.1,0.1-0.1,0.2-0.1h21.6
	c0.1,0,0.1,0,0.2,0.1c0.1,0.1,0.1,0.1,0.1,0.2v2.7c0,0.1,0,0.1-0.1,0.2c-0.1,0.1-0.1,0.1-0.2,0.1H0.3z M21.9,14.2
	c0.1,0,0.1,0,0.2-0.1c0.1-0.1,0.1-0.1,0.1-0.2v-2.7c0-0.1,0-0.1-0.1-0.2s-0.1-0.1-0.2-0.1H0.3c-0.1,0-0.1,0-0.2,0.1
	C0,11.1,0,11.1,0,11.2v2.7c0,0.1,0,0.1,0.1,0.2c0.1,0.1,0.1,0.1,0.2,0.1H21.9z M21.9,3.2c0.1,0,0.1,0,0.2-0.1s0.1-0.1,0.1-0.2V0.3
	c0-0.1,0-0.1-0.1-0.2C22,0,21.9,0,21.9,0H0.3C0.2,0,0.1,0,0.1,0.1C0,0.1,0,0.2,0,0.3V3c0,0.1,0,0.1,0.1,0.2c0.1,0.1,0.1,0.1,0.2,0.1
	H21.9z M21.9,8.7c0.1,0,0.1,0,0.2-0.1c0.1-0.1,0.1-0.1,0.1-0.2V5.7c0-0.1,0-0.1-0.1-0.2s-0.1-0.1-0.2-0.1H0.3c-0.1,0-0.1,0-0.2,0.1
	C0,5.6,0,5.7,0,5.7v2.7c0,0.1,0,0.1,0.1,0.2c0.1,0.1,0.1,0.1,0.2,0.1H21.9z"/>
</svg>
