<?xml version="1.0" encoding="utf-8"?>
<!-- Generator: Adobe Illustrator 23.0.2, SVG Export Plug-In . SVG Version: 6.00 Build 0)  -->
<svg version="1.1" id="Layer_1" xmlns="http://www.w3.org/2000/svg" xmlns:xlink="http://www.w3.org/1999/xlink" x="0px" y="0px"
	 viewBox="0 0 15.8 11.3" style="enable-background:new 0 0 15.8 11.3;" xml:space="preserve">
<style type="text/css">
	.st0{fill:#686868;}
</style>
<path class="st0" d="M15.8,5.6c0,0.6,0,1,0,1.3c0,0.3,0,0.7-0.1,1.2c0,0.5-0.1,0.9-0.2,1.3c-0.1,0.4-0.3,0.8-0.6,1.1
	c-0.3,0.3-0.7,0.5-1.1,0.5c-1.3,0.1-3.3,0.2-5.9,0.2c-2.7,0-4.6-0.1-5.9-0.2c-0.4,0-0.8-0.2-1.1-0.5c-0.3-0.3-0.5-0.7-0.6-1.1
	C0.2,9.1,0.1,8.7,0.1,8.2C0,7.7,0,7.3,0,7c0-0.3,0-0.8,0-1.3c0-0.6,0-1,0-1.3c0-0.3,0.1-0.7,0.1-1.2c0-0.5,0.1-0.9,0.2-1.3
	C0.4,1.4,0.6,1,0.9,0.7C1.2,0.4,1.6,0.3,2,0.2C3.3,0.1,5.3,0,7.9,0c2.6,0,4.6,0.1,5.9,0.2c0.4,0,0.8,0.2,1.1,0.5
	c0.3,0.3,0.5,0.7,0.6,1.1c0.1,0.4,0.1,0.8,0.2,1.3c0,0.5,0.1,0.9,0.1,1.2C15.8,4.6,15.8,5.1,15.8,5.6z M11.1,6.1
	c0.2-0.1,0.3-0.3,0.3-0.5c0-0.2-0.1-0.4-0.3-0.5L6.5,2.3C6.4,2.2,6.2,2.2,6,2.3C5.8,2.4,5.7,2.6,5.7,2.8v5.7C5.7,8.7,5.8,8.9,6,9
	C6.1,9,6.1,9,6.2,9C6.3,9,6.4,9,6.5,9L11.1,6.1L11.1,6.1z"/>
</svg>
